<?xml version="1.0" encoding="UTF-8"?>
<svg id="Layer_1" xmlns="http://www.w3.org/2000/svg" version="1.1" viewBox="0 0 500 500">
  <!-- Generator: Adobe Illustrator 29.1.0, SVG Export Plug-In . SVG Version: 2.1.0 Build 142)  -->
  <defs>
    <style>
      .st0 {
        fill: #c9442c;
      }

      .st1 {
        fill: #468426;
      }

      .st2 {
        fill: #97bf49;
      }
    </style>
  </defs>
  <g>
    <path class="st2" d="M233.2,374.1s-90.5,3.4-82.2-127.8c0,0,94.8,17.5,88.4,111,0,0-29.7-43.7-55.4-62.2,0,0,10.2,25.9,49.2,79h0Z"/>
    <path class="st2" d="M267.8,374.1s90.5,3.4,82.2-127.8c0,0-94.8,17.5-88.4,111,0,0,29.7-43.7,55.4-62.2,0,0-10.2,25.9-49.2,79Z"/>
    <path class="st2" d="M250.1,294.7s54.7-33-.8-107.2c0,0-49.2,47-9.3,99.6,0,0,.6-37.3,8.6-58.1,0,0,4,19.2,1.5,65.6h0Z"/>
  </g>
  <path class="st1" d="M250.5,58.2c-40.3,0-72.9,14.8-72.9,33v33h145.8v-33c0-18.2-32.6-33-72.9-33h0ZM302.2,113.1h-103.5v-17.8c0-6.3,19.6-17.8,51.7-17.8s51.7,11.5,51.7,17.8v17.8Z"/>
  <circle class="st1" cx="250.5" cy="38.1" r="36.8"/>
  <path class="st0" d="M282.6,453.7h0l-33.4-59.9-33.4,59.9h0c-1.1,3.4-1.8,7.1-1.8,10.9,0,19.4,15.7,35.1,35.1,35.1s35.1-15.7,35.1-35.1-.6-7.5-1.8-10.9Z"/>
  <path class="st1" d="M440.9,419.7l-10.1-8.4c-18.6-15.5-24.7-35.7-26.6-50.4v-107.1c0-86-71-155.8-157.5-153.8-84,2-150.1,72.7-150.1,156.7v104.7c-1.9,14.5-8.1,34.5-26.5,49.8l-10.1,8.4c-14,11.7-5.8,34.5,12.5,34.5h125.2l14.5-24.3h-111.3c-5.3,0-8.2-6.2-4.7-10.2,17.1-19.2,22.9-41.1,24.7-56.8v-109.1c0-70.7,56.6-128.2,127-129.5,72.6-1.4,132.1,59.4,132.1,132.1v105.9c1.8,15.8,7.5,38,24.8,57.4,3.5,3.9.6,10.1-4.7,10.1h-113.9l14.5,24.3h127.7c18.2,0,26.5-22.8,12.5-34.5h0Z"/>
</svg>